<mxfile host="65bd71144e">
    <diagram id="6EXt89o7fHejoy0miyVt" name="Page-1">
        <mxGraphModel dx="729" dy="1653" grid="1" gridSize="10" guides="1" tooltips="1" connect="1" arrows="1" fold="1" page="1" pageScale="1" pageWidth="850" pageHeight="1100" math="0" shadow="0">
            <root>
                <mxCell id="0"/>
                <mxCell id="1" parent="0"/>
                <mxCell id="142" value="" style="rounded=0;whiteSpace=wrap;html=1;fontFamily=JetBrains Mono;fontSource=https%3A%2F%2Ffonts.googleapis.com%2Fcss%3Ffamily%3DJetBrains%2BMono;fontSize=14;fillColor=#FFFFFF;strokeColor=none;" parent="1" vertex="1">
                    <mxGeometry x="200" y="-110" width="540" height="250" as="geometry"/>
                </mxCell>
                <mxCell id="143" value="" style="rounded=1;whiteSpace=wrap;html=1;fillColor=#cdd1e6;strokeColor=#cdd1e6;arcSize=5;strokeWidth=2;fontFamily=JetBrains Mono;fontSource=https%3A%2F%2Ffonts.googleapis.com%2Fcss%3Ffamily%3DJetBrains%2BMono;fillStyle=auto;" parent="1" vertex="1">
                    <mxGeometry x="210" y="50" width="160" height="80" as="geometry"/>
                </mxCell>
                <mxCell id="144" value="Node 1" style="text;html=1;strokeColor=none;fillColor=none;align=left;verticalAlign=middle;whiteSpace=wrap;rounded=0;fontColor=default;strokeWidth=2;fontFamily=JetBrains Mono;fontSource=https%3A%2F%2Ffonts.googleapis.com%2Fcss%3Ffamily%3DJetBrains%2BMono;fontSize=12;fontStyle=1;" parent="1" vertex="1">
                    <mxGeometry x="220" y="59" width="60" height="20" as="geometry"/>
                </mxCell>
                <mxCell id="145" value="" style="rounded=1;whiteSpace=wrap;html=1;fillColor=#cdd1e6;strokeColor=#cdd1e6;arcSize=5;strokeWidth=2;fontFamily=JetBrains Mono;fontSource=https%3A%2F%2Ffonts.googleapis.com%2Fcss%3Ffamily%3DJetBrains%2BMono;fillStyle=auto;" parent="1" vertex="1">
                    <mxGeometry x="390" y="50" width="160" height="80" as="geometry"/>
                </mxCell>
                <mxCell id="146" value="Node 2" style="text;html=1;strokeColor=none;fillColor=none;align=left;verticalAlign=middle;whiteSpace=wrap;rounded=0;fontColor=default;strokeWidth=2;fontFamily=JetBrains Mono;fontSource=https%3A%2F%2Ffonts.googleapis.com%2Fcss%3Ffamily%3DJetBrains%2BMono;fontSize=12;fontStyle=1;" parent="1" vertex="1">
                    <mxGeometry x="400" y="59" width="60" height="20" as="geometry"/>
                </mxCell>
                <mxCell id="147" value="" style="rounded=1;whiteSpace=wrap;html=1;fillColor=#cdd1e6;strokeColor=#cdd1e6;arcSize=5;strokeWidth=2;fontFamily=JetBrains Mono;fontSource=https%3A%2F%2Ffonts.googleapis.com%2Fcss%3Ffamily%3DJetBrains%2BMono;fillStyle=auto;" parent="1" vertex="1">
                    <mxGeometry x="570" y="50" width="160" height="80" as="geometry"/>
                </mxCell>
                <mxCell id="148" value="Node 3" style="text;html=1;strokeColor=none;fillColor=none;align=left;verticalAlign=middle;whiteSpace=wrap;rounded=0;fontColor=default;strokeWidth=2;fontFamily=JetBrains Mono;fontSource=https%3A%2F%2Ffonts.googleapis.com%2Fcss%3Ffamily%3DJetBrains%2BMono;fontSize=12;fontStyle=1;" parent="1" vertex="1">
                    <mxGeometry x="580" y="59" width="60" height="20" as="geometry"/>
                </mxCell>
                <mxCell id="183" style="edgeStyle=orthogonalEdgeStyle;html=1;exitX=0.5;exitY=1;exitDx=0;exitDy=0;entryX=0.5;entryY=0;entryDx=0;entryDy=0;fontFamily=JetBrains Mono;fontSource=https%3A%2F%2Ffonts.googleapis.com%2Fcss%3Ffamily%3DJetBrains%2BMono;fontSize=9;fontColor=#000000;fillColor=#60a917;strokeColor=#38cda9;strokeWidth=2;" parent="1" source="169" target="143" edge="1">
                    <mxGeometry relative="1" as="geometry">
                        <Array as="points">
                            <mxPoint x="460" y="-10"/>
                            <mxPoint x="460" y="20"/>
                            <mxPoint x="290" y="20"/>
                        </Array>
                    </mxGeometry>
                </mxCell>
                <mxCell id="185" style="edgeStyle=orthogonalEdgeStyle;html=1;exitX=0.5;exitY=1;exitDx=0;exitDy=0;entryX=0.5;entryY=0;entryDx=0;entryDy=0;strokeWidth=2;fontFamily=JetBrains Mono;fontSource=https%3A%2F%2Ffonts.googleapis.com%2Fcss%3Ffamily%3DJetBrains%2BMono;fontSize=9;fontColor=#000000;fillColor=#60a917;strokeColor=#38cda9;" parent="1" source="169" target="145" edge="1">
                    <mxGeometry relative="1" as="geometry"/>
                </mxCell>
                <mxCell id="186" style="edgeStyle=orthogonalEdgeStyle;html=1;exitX=0.5;exitY=1;exitDx=0;exitDy=0;entryX=0.5;entryY=0;entryDx=0;entryDy=0;strokeWidth=2;fontFamily=JetBrains Mono;fontSource=https%3A%2F%2Ffonts.googleapis.com%2Fcss%3Ffamily%3DJetBrains%2BMono;fontSize=9;fontColor=#000000;fillColor=#e51400;strokeColor=#B20000;" parent="1" source="169" target="147" edge="1">
                    <mxGeometry relative="1" as="geometry">
                        <Array as="points">
                            <mxPoint x="480" y="-10"/>
                            <mxPoint x="480" y="20"/>
                            <mxPoint x="650" y="20"/>
                        </Array>
                    </mxGeometry>
                </mxCell>
                <mxCell id="169" value="" style="rounded=1;whiteSpace=wrap;html=1;strokeColor=#0064ff;strokeWidth=2;fontFamily=JetBrains Mono;fontSource=https%3A%2F%2Ffonts.googleapis.com%2Fcss%3Ffamily%3DJetBrains%2BMono;fontSize=12;fontColor=#ffffff;fillColor=none;arcSize=9;" parent="1" vertex="1">
                    <mxGeometry x="390" y="-100" width="160" height="90" as="geometry"/>
                </mxCell>
                <mxCell id="175" value="labels:&lt;br style=&quot;font-size: 10px;&quot;&gt;&amp;nbsp; disktype: ssd" style="text;html=1;strokeColor=none;fillColor=none;align=left;verticalAlign=middle;whiteSpace=wrap;rounded=0;labelBackgroundColor=none;fontColor=#000000;fontFamily=JetBrains Mono;fontSource=https%3A%2F%2Ffonts.googleapis.com%2Fcss%3Ffamily%3DJetBrains%2BMono;fontSize=10;" parent="1" vertex="1">
                    <mxGeometry x="220" y="79" width="130" height="30" as="geometry"/>
                </mxCell>
                <mxCell id="176" value="labels:&lt;br style=&quot;font-size: 10px;&quot;&gt;&amp;nbsp; disktype: ssd" style="text;html=1;strokeColor=none;fillColor=none;align=left;verticalAlign=middle;whiteSpace=wrap;rounded=0;labelBackgroundColor=none;fontColor=#000000;fontFamily=JetBrains Mono;fontSource=https%3A%2F%2Ffonts.googleapis.com%2Fcss%3Ffamily%3DJetBrains%2BMono;fontSize=10;" parent="1" vertex="1">
                    <mxGeometry x="400" y="79" width="130" height="30" as="geometry"/>
                </mxCell>
                <mxCell id="177" value="labels:&lt;br style=&quot;font-size: 10px;&quot;&gt;&amp;nbsp; disktype: hdd" style="text;html=1;strokeColor=none;fillColor=none;align=left;verticalAlign=middle;whiteSpace=wrap;rounded=0;labelBackgroundColor=none;fontColor=#000000;fontFamily=JetBrains Mono;fontSource=https%3A%2F%2Ffonts.googleapis.com%2Fcss%3Ffamily%3DJetBrains%2BMono;fontSize=10;" parent="1" vertex="1">
                    <mxGeometry x="580" y="79" width="130" height="30" as="geometry"/>
                </mxCell>
                <mxCell id="178" value="VM" style="text;html=1;strokeColor=none;fillColor=none;align=left;verticalAlign=middle;whiteSpace=wrap;rounded=0;fontColor=#0066ff;strokeWidth=2;fontFamily=JetBrains Mono;fontSource=https%3A%2F%2Ffonts.googleapis.com%2Fcss%3Ffamily%3DJetBrains%2BMono;fontSize=12;fontStyle=1" parent="1" vertex="1">
                    <mxGeometry x="407.5" y="-90" width="60" height="20" as="geometry"/>
                </mxCell>
                <mxCell id="179" value="spec:&#10;  nodeSelector:&#10;    disktype: ssd" style="text;strokeColor=none;fillColor=none;align=left;verticalAlign=top;whiteSpace=wrap;rounded=0;labelBackgroundColor=none;fontFamily=JetBrains Mono;fontSource=https%3A%2F%2Ffonts.googleapis.com%2Fcss%3Ffamily%3DJetBrains%2BMono;fontColor=#000000;fontSize=9;spacing=3;horizontal=1;" parent="1" vertex="1">
                    <mxGeometry x="422.5" y="-65" width="100" height="50" as="geometry"/>
                </mxCell>
                <mxCell id="180" value="" style="rounded=1;whiteSpace=wrap;html=1;labelBackgroundColor=none;strokeColor=#38cda9;fontFamily=JetBrains Mono;fontSource=https%3A%2F%2Ffonts.googleapis.com%2Fcss%3Ffamily%3DJetBrains%2BMono;fontSize=9;fontColor=#000000;fillColor=none;strokeWidth=2;" parent="1" vertex="1">
                    <mxGeometry x="442.5" y="-36" width="80" height="11" as="geometry"/>
                </mxCell>
                <mxCell id="181" value="" style="rounded=1;whiteSpace=wrap;html=1;labelBackgroundColor=none;strokeColor=#38cda9;fontFamily=JetBrains Mono;fontSource=https%3A%2F%2Ffonts.googleapis.com%2Fcss%3Ffamily%3DJetBrains%2BMono;fontSize=9;fontColor=#000000;fillColor=none;strokeWidth=2;" parent="1" vertex="1">
                    <mxGeometry x="410" y="94" width="88" height="13" as="geometry"/>
                </mxCell>
                <mxCell id="182" value="" style="rounded=1;whiteSpace=wrap;html=1;labelBackgroundColor=none;strokeColor=#38cda9;fontFamily=JetBrains Mono;fontSource=https%3A%2F%2Ffonts.googleapis.com%2Fcss%3Ffamily%3DJetBrains%2BMono;fontSize=9;fontColor=#000000;fillColor=none;strokeWidth=2;" parent="1" vertex="1">
                    <mxGeometry x="231" y="94" width="86" height="13" as="geometry"/>
                </mxCell>
                <mxCell id="187" value="❌" style="text;whiteSpace=wrap;html=1;fontSize=16;fontColor=#0066FF;" parent="1" vertex="1">
                    <mxGeometry x="638" y="37" width="22" height="23" as="geometry"/>
                </mxCell>
            </root>
        </mxGraphModel>
    </diagram>
</mxfile>
